# xmcd CD database file
#
# Track frame offsets:
#	150
#	17403
#	33104
#	49980
#	73006
#	87391
#	101562
#	115996
#	128880
#	143922
#	162036
#	182578
#	197751
#
# Disc length: 2837 seconds
#
# Revision: 0
# Processed by: cddbd v1.4PL0 Copyright (c) Steve Scherf et al.
# Submitted via: CDex 1.51
#
DISCID=ac0b130d
DTITLE=Alison Krauss and Union Station - Live [CD1]
DYEAR=1900
DGENRE=Country
TTITLE0=Let Me Touch You For Awhile
TTITLE1=Choctaw Hayride
TTITLE2=The Lucky One
TTITLE3=Baby, Now That I've Found You
TTITLE4=Bright Sunny South
TTITLE5=Every Time You Say Goodbye
TTITLE6=Tiny Broken Heart
TTITLE7=Cluck Old Hen
TTITLE8=Stay
TTITLE9=Broadway
TTITLE10=Ghost In This House
TTITLE11=Forget About It
TTITLE12=Faraway Land
EXTD=
EXTT0=
EXTT1=
EXTT2=
EXTT3=
EXTT4=
EXTT5=
EXTT6=
EXTT7=
EXTT8=
EXTT9=
EXTT10=
EXTT11=
EXTT12=
PLAYORDER=
